<?xml version="1.0" standalone="no"?><!DOCTYPE svg PUBLIC "-//W3C//DTD SVG 1.1//EN" "http://www.w3.org/Graphics/SVG/1.1/DTD/svg11.dtd"><svg t="1562407340010" class="icon" viewBox="0 0 1024 1024" version="1.1" xmlns="http://www.w3.org/2000/svg" p-id="1482" xmlns:xlink="http://www.w3.org/1999/xlink" width="200" height="200"><defs><style type="text/css"></style></defs><path d="M521.152 511.936m-416 0a416 416 0 1 0 832 0 416 416 0 1 0-832 0Z" fill="#AEECFF" p-id="1483"></path><path d="M804.992 707.84c0 12.288-10.048 22.4-22.4 22.4H293.888a22.464 22.464 0 0 1-22.4-22.4V427.264c0-12.288 10.112-22.4 22.4-22.4h488.704c12.288 0 22.4 10.112 22.4 22.4v280.576z" fill="#E3BF20" p-id="1484"></path><path d="M769.216 741.504c0 12.288-10.048 22.4-22.4 22.4H258.112a22.464 22.464 0 0 1-22.4-22.4V460.992c0-12.288 10.112-22.4 22.4-22.4h488.704c12.288 0 22.4 10.112 22.4 22.4v280.512z" fill="#EF5756" p-id="1485"></path><path d="M995.328 402.432a22.4 22.4 0 0 1-3.776 31.424L564.48 770.368a22.4 22.4 0 0 1-31.424-3.776L316.224 491.456A22.4 22.4 0 0 1 320 460.032l427.008-336.512a22.464 22.464 0 0 1 31.488 3.776l216.832 275.136z" fill="#67CBFF" p-id="1486"></path><path d="M331.392 510.72l462.336-364.288 55.808 70.912-462.272 364.16z" fill="#4E4E4E" p-id="1487"></path><path d="M428.608 588.096l251.328-198.016 44.608 56.576-251.392 198.016z" fill="#FFFFFF" p-id="1488"></path><path d="M912 339.712a16 16 0 0 1-2.688 22.464l-111.04 87.488a16 16 0 0 1-22.464-2.688l-54.656-69.248a16 16 0 0 1 2.688-22.464l111.04-87.488a16 16 0 0 1 22.464 2.688l54.656 69.248z" fill="#D3CC4C" p-id="1489"></path><path d="M828.16 273.088l7.616-5.888 74.176 94.464-7.552 5.952zM723.392 355.712l7.552-5.952 74.176 94.464-7.552 5.952z" fill="#4E4E4E" p-id="1490"></path><path d="M740.288 361.792l97.28-76.672 6.016 7.552-97.28 76.672zM791.04 426.176l97.28-76.672 5.952 7.616-97.28 76.608zM733.632 393.408L745.6 384l3.392 4.288-12.032 9.472zM746.816 410.24l12.032-9.472 3.392 4.288-12.032 9.472zM760 426.88l11.968-9.408 3.456 4.288-12.032 9.472zM857.984 295.424l11.968-9.408 3.456 4.352-11.968 9.408zM871.296 312.192l11.904-9.472 3.456 4.288-11.968 9.472zM884.48 328.96l11.904-9.472 3.456 4.288-11.968 9.472z" fill="#4E4E4E" p-id="1491"></path><path d="M868.032 537.024c0-28.16-23.04-51.2-51.2-51.2H224.96c-28.16 0-51.2 23.04-51.2 51.2v203.648a415.552 415.552 0 0 0 694.208 0.768V537.024z" fill="#7C4338" p-id="1492"></path><path d="M445.184 486.016s11.712 18.88 13.44 25.984c8.512 35.392-0.64 145.664-0.64 145.664 0 12.288 10.112 22.4 22.4 22.4h75.2c12.288 0 22.4-10.048 22.4-22.4 0 0 9.152-110.272 0.64-145.664-1.664-7.104-13.44-25.984-13.44-25.984H445.184z" fill="#A88280" p-id="1493"></path><path d="M521.152 632m-37.248 0a37.248 37.248 0 1 0 74.496 0 37.248 37.248 0 1 0-74.496 0Z" fill="#4B4B4B" p-id="1494"></path><path d="M521.152 632m-30.848 0a30.848 30.848 0 1 0 61.696 0 30.848 30.848 0 1 0-61.696 0Z" fill="#595959" p-id="1495"></path><path d="M521.152 632m-17.088 0a17.088 17.088 0 1 0 34.176 0 17.088 17.088 0 1 0-34.176 0Z" fill="#4B4B4B" p-id="1496"></path><path d="M208.896 531.328c0 1.792 1.472 3.264 3.264 3.264s3.264-1.472 3.264-3.264v-3.84h15.872c1.792 0 3.264-1.472 3.264-3.264s-1.408-3.264-3.2-3.264h-22.464v10.368zM215.488 767.936c0-1.792-1.472-3.328-3.264-3.328s-3.264 1.472-3.264 3.328v18.304l6.592 7.232v-25.536zM208.896 715.392v26.304c0 1.792 1.472 3.328 3.264 3.328s3.264-1.472 3.264-3.328v-26.304c0-1.792-1.472-3.328-3.264-3.328s-3.264 1.472-3.264 3.328zM215.488 610.176c0-1.792-1.472-3.328-3.264-3.328s-3.328 1.536-3.328 3.328v26.304c0 1.792 1.472 3.328 3.264 3.328s3.264-1.472 3.264-3.328v-26.304zM215.488 557.632c0-1.792-1.472-3.264-3.264-3.264s-3.328 1.472-3.328 3.264v26.304c0 1.792 1.472 3.328 3.264 3.328s3.264-1.472 3.264-3.328v-26.304zM215.488 662.784c0-1.792-1.472-3.328-3.264-3.328s-3.264 1.472-3.264 3.328v26.24c0 1.792 1.472 3.328 3.264 3.328s3.264-1.472 3.264-3.328v-26.24zM412.096 524.224c0 1.792 1.472 3.264 3.264 3.264h26.304c1.792 0 3.264-1.472 3.264-3.264s-1.408-3.264-3.264-3.264H415.36a3.264 3.264 0 0 0-3.264 3.264zM254.4 524.224c0 1.792 1.472 3.264 3.264 3.264h26.304c1.792 0 3.264-1.472 3.264-3.264s-1.472-3.264-3.264-3.264h-26.304a3.264 3.264 0 0 0-3.264 3.264zM464.704 524.224c0 1.792 1.472 3.264 3.264 3.264h26.304c1.792 0 3.264-1.472 3.264-3.264s-1.472-3.264-3.264-3.264h-26.304a3.264 3.264 0 0 0-3.264 3.264zM550.144 524.224a3.264 3.264 0 0 0-3.264-3.264h-26.304c-1.792 0-3.264 1.472-3.264 3.264s1.472 3.264 3.264 3.264h26.304a3.264 3.264 0 0 0 3.264-3.264zM306.944 524.224c0 1.792 1.472 3.264 3.264 3.264h26.304c1.792 0 3.264-1.472 3.264-3.264s-1.472-3.264-3.264-3.264h-26.304a3.264 3.264 0 0 0-3.264 3.264zM359.552 524.224c0 1.792 1.472 3.264 3.264 3.264h26.304c1.792 0 3.264-1.472 3.264-3.264s-1.472-3.264-3.264-3.264h-26.304a3.264 3.264 0 0 0-3.264 3.264zM832.96 688.384c0-1.792-1.472-3.328-3.328-3.328s-3.328 1.472-3.328 3.328v26.304c0 1.792 1.472 3.328 3.328 3.328s3.328-1.472 3.328-3.328v-26.304zM826.304 740.928v26.304c0 1.792 1.472 3.328 3.328 3.328s3.328-1.472 3.328-3.328v-26.304c0-1.792-1.472-3.328-3.328-3.328s-3.328 1.536-3.328 3.328zM832.96 635.84c0-1.792-1.472-3.328-3.328-3.328s-3.328 1.472-3.328 3.328v26.24c0 1.792 1.472 3.328 3.328 3.328s3.328-1.472 3.328-3.328v-26.24zM832.96 583.168c0-1.792-1.472-3.328-3.328-3.328s-3.328 1.472-3.328 3.328v26.304c0 1.792 1.472 3.328 3.328 3.328s3.328-1.472 3.328-3.328v-26.304zM832.96 530.624c0-1.792-1.472-3.264-3.328-3.264s-3.328 1.472-3.328 3.264v26.304c0 1.792 1.472 3.264 3.328 3.264s3.328-1.472 3.328-3.264v-26.304zM569.856 524.224c0 1.792 1.472 3.264 3.264 3.264h26.304c1.792 0 3.328-1.472 3.328-3.264s-1.472-3.264-3.328-3.264h-26.304a3.264 3.264 0 0 0-3.264 3.264zM727.552 524.224c0 1.792 1.472 3.264 3.328 3.264h26.304c1.792 0 3.328-1.472 3.328-3.264s-1.536-3.264-3.328-3.264h-26.304a3.328 3.328 0 0 0-3.328 3.264zM675.008 524.224c0 1.792 1.472 3.264 3.328 3.264h26.24c1.792 0 3.328-1.472 3.328-3.264s-1.536-3.264-3.328-3.264h-26.24a3.264 3.264 0 0 0-3.328 3.264zM622.4 524.224c0 1.792 1.472 3.264 3.328 3.264h26.304c1.792 0 3.328-1.472 3.328-3.264s-1.536-3.264-3.328-3.264h-26.368a3.264 3.264 0 0 0-3.264 3.264zM780.096 524.224c0 1.792 1.472 3.264 3.328 3.264h26.304c1.792 0 3.328-1.472 3.328-3.264s-1.472-3.264-3.328-3.264h-26.304a3.328 3.328 0 0 0-3.328 3.264zM829.632 790.272a3.328 3.328 0 0 0-3.328 3.328v0.448l3.328-3.776c0 0.064 0 0 0 0z" fill="#491F12" p-id="1497"></path></svg>